<svg version="1.0" xmlns="http://www.w3.org/2000/svg"
 width="35px" height="35px" viewBox="0 0 100.000000 100.000000"
 preserveAspectRatio="xMidYMid meet">
    <g transform="translate(0.000000,100.000000) scale(0.100000,-0.100000)"
    fill="#000000" stroke="none">
        <path d="M455 990 c-148 -30 -276 -124 -340 -250 -98 -193 -58 -450 92 -597
        186 -182 490 -189 691 -15 l43 37 -79 78 -78 78 -45 -36 c-153 -122 -379 -62
        -446 118 -16 43 -15 154 1 200 33 91 108 152 209 170 87 15 158 -1 229 -53
        l55 -39 77 78 78 79 -53 42 c-127 100 -283 140 -434 110z"/>
        <path d="M472 643 c-99 -49 -110 -206 -18 -274 45 -34 147 -34 192 0 93 69 81
        227 -20 275 -43 20 -112 20 -154 -1z"/>
    </g>
</svg>