<?xml version="1.0" encoding="utf-8"?>
<!-- Generator: Adobe Illustrator 17.1.0, SVG Export Plug-In . SVG Version: 6.00 Build 0)  -->
<!DOCTYPE svg PUBLIC "-//W3C//DTD SVG 1.1//EN" "http://www.w3.org/Graphics/SVG/1.1/DTD/svg11.dtd">
<svg version="1.1" xmlns="http://www.w3.org/2000/svg" xmlns:xlink="http://www.w3.org/1999/xlink" x="0px" y="0px"
	 viewBox="0 0 180 50" enable-background="new 0 0 180 50" xml:space="preserve">
<g id="Layer_1" display="none">
</g>
<g id="Layer_2">
	<g id="XMLID_7_">
		<path id="XMLID_8_" fill="#FFFFFF" d="M52.805,25.033V24.98c0-5.166,3.861-9.445,9.236-9.445c3.314,0,5.296,1.174,7.123,2.896
			l-1.409,1.513c-1.539-1.461-3.261-2.505-5.74-2.505c-4.044,0-7.071,3.287-7.071,7.488v0.052c0,4.227,3.053,7.54,7.071,7.54
			c2.505,0,4.148-0.965,5.896-2.635l1.357,1.331c-1.905,1.931-3.992,3.209-7.305,3.209C56.693,34.425,52.805,30.277,52.805,25.033z"
			/>
		<path id="XMLID_10_" fill="#FFFFFF" d="M71.93,15.066h2.009v19.046H71.93V15.066z"/>
		<path id="XMLID_12_" fill="#FFFFFF" d="M77.618,28.998v-8.375h2.009v7.879c0,2.505,1.357,4.07,3.731,4.07
			c2.296,0,4.044-1.696,4.044-4.227v-7.723h1.983v13.489h-1.983v-2.348c-0.913,1.461-2.296,2.635-4.618,2.635
			C79.523,34.399,77.618,32.207,77.618,28.998z"/>
		<path id="XMLID_14_" fill="#FFFFFF" d="M95.126,31.529v2.583h-2.009V15.066h2.009v8.271c1.096-1.618,2.687-3,5.166-3
			c3.235,0,6.444,2.557,6.444,6.992v0.052c0,4.409-3.183,7.018-6.444,7.018C97.787,34.399,96.17,33.042,95.126,31.529z
			 M104.675,27.407v-0.052c0-3.183-2.192-5.218-4.748-5.218c-2.505,0-4.879,2.113-4.879,5.192v0.052
			c0,3.131,2.374,5.218,4.879,5.218C102.536,32.599,104.675,30.668,104.675,27.407z"/>
		<path id="XMLID_17_" fill="#FFFFFF" d="M108.537,31.451l1.931-2.296c1.748,1.513,3.522,2.374,5.766,2.374
			c1.983,0,3.235-0.939,3.235-2.296v-0.052c0-1.304-0.73-2.009-4.122-2.792c-3.887-0.939-6.079-2.087-6.079-5.453v-0.052
			c0-3.131,2.609-5.296,6.236-5.296c2.661,0,4.775,0.809,6.627,2.296l-1.722,2.426c-1.644-1.226-3.287-1.879-4.957-1.879
			c-1.879,0-2.974,0.965-2.974,2.166v0.052c0,1.409,0.835,2.035,4.357,2.87c3.861,0.939,5.844,2.322,5.844,5.349v0.052
			c0,3.418-2.687,5.453-6.523,5.453C113.364,34.373,110.729,33.407,108.537,31.451z"/>
		<path id="XMLID_19_" fill="#FFFFFF" d="M124.74,20.336h3.157v2.296c1.018-1.435,2.453-2.583,4.696-2.583
			c3.235,0,6.392,2.557,6.392,7.149v0.052c0,4.566-3.131,7.149-6.392,7.149c-2.296,0-3.731-1.148-4.696-2.426v6.314h-3.157V20.336z
			 M135.777,27.25v-0.052c0-2.661-1.8-4.409-3.94-4.409c-2.139,0-4.018,1.774-4.018,4.409v0.052c0,2.635,1.879,4.409,4.018,4.409
			C134.002,31.659,135.777,29.964,135.777,27.25z"/>
		<path id="XMLID_22_" fill="#FFFFFF" d="M140.552,30.146v-0.052c0-2.974,2.322-4.436,5.688-4.436c1.539,0,2.635,0.235,3.705,0.574
			v-0.339c0-1.957-1.2-3-3.418-3c-1.539,0-2.687,0.339-3.94,0.861l-0.835-2.479c1.513-0.678,3-1.122,5.192-1.122
			c2.061,0,3.601,0.548,4.566,1.539c1.018,0.991,1.487,2.452,1.487,4.253v8.166h-3.079V32.39c-0.939,1.122-2.374,2.009-4.488,2.009
			C142.848,34.399,140.552,32.912,140.552,30.146z M149.997,29.155v-0.939c-0.809-0.313-1.879-0.548-3.131-0.548
			c-2.035,0-3.235,0.861-3.235,2.296v0.052c0,1.331,1.174,2.087,2.687,2.087C148.405,32.103,149.997,30.903,149.997,29.155z"/>
		<path id="XMLID_25_" fill="#FFFFFF" d="M155.998,20.336h3.157v3.105c0.861-2.061,2.453-3.47,4.879-3.366v3.34h-0.183
			c-2.766,0-4.696,1.8-4.696,5.453v5.244h-3.157V20.336z"/>
		<path id="XMLID_27_" fill="#FFFFFF" d="M165.992,15.066h3.157v11.376l5.714-6.105h3.835l-5.479,5.609l5.662,8.166h-3.705
			l-4.07-5.975l-1.957,2.035v3.94h-3.157V15.066z"/>
	</g>
	<g id="XMLID_56_">
		<defs>
			<path id="XMLID_57_" d="M42.027,34.409c0,1.294-0.987,2.881-2.108,3.528l-16.337,9.409c-1.12,0.647-2.972,0.647-4.092,0
				L3.109,37.937c-1.12-0.647-2.117-2.234-2.117-3.528V15.591c0-1.294,0.988-2.881,2.108-3.528l16.337-9.409
				c1.12-0.647,2.972-0.647,4.092,0l16.381,9.409c1.12,0.647,2.117,2.234,2.117,3.528V34.409z"/>
		</defs>
		<clipPath id="XMLID_5_">
			<use xlink:href="#XMLID_57_"  overflow="visible"/>
		</clipPath>
		<path clip-path="url(#XMLID_5_)" fill="#FFFFFF" d="M21.461,1.478L0.945,13.239v0.016v0.003v23.516l20.469,11.768l0.089-0.008
			l0.05,0.008l20.425-11.768V13.267v-0.012v-0.016L21.461,1.478z M21.59,42.818V25l-8.556,4.94L21.59,7.182v17.774l2.918-1.673
			l-2.918,1.684V25l8.556-4.94L21.59,42.818z"/>
	</g>
</g>
</svg>
